<svg width="147" height="146" fill="none" xmlns="http://www.w3.org/2000/svg"><path d="M146.7.3H1.3v145.4h145.4V.3z" fill="#F7E016"/><path d="M146.7.3H1.3v145.4h145.4V.3z" stroke="#F7E016" stroke-width=".454" stroke-miterlimit="3.864"/><path d="M146.6 28.2s-31.8 6.5-34.9 7c-12.6 2-25.6 0-36.5-4.7-7.3-3.9-14.8-7.3-23-8.4-5.3-.8-11-.8-16.3-.1l-23.3 4.2c-3.7.7-7.6 1.4-11.3 2V1.8C7 .4 13.4-.5 19.3 1.4c3.4.8 6.4 2.8 9.6 4.3 6.4 3.4 12.6 7.5 19.8 9.1 9.6 2.7 20.9 2.1 30.5-.2l21.8-4 22.8-4.1 22.9-4.7v26.4" fill="#E4312A"/><path d="M146.6 28.2s-31.8 6.5-34.9 7c-12.6 2-25.6 0-36.5-4.7-7.3-3.9-14.8-7.3-23-8.4-5.3-.8-11-.8-16.3-.1l-23.3 4.2c-3.7.7-7.6 1.4-11.3 2V1.8C7 .4 13.4-.5 19.3 1.4c3.4.8 6.4 2.8 9.6 4.3 6.4 3.4 12.6 7.5 19.8 9.1 9.6 2.7 20.9 2.1 30.5-.2l21.8-4 22.8-4.1 22.9-4.7v26.4h-.1z" stroke="#E4312A" stroke-width=".454" stroke-miterlimit="3.864"/><path fill-rule="evenodd" clip-rule="evenodd" d="M31.7 112.2c14.6-3.6 31.3-1.6 44.1 4.7 11 6.6 24.9 9.4 38.3 6.9l32.5-5.9v26.3c-4.6 1-9 1.9-13.9 1.2-2.6-.4-5-1.1-7.4-2.1l-16.9-8.8c-9.7-4.3-21.6-5.9-32.7-3.8L6 143.5l-4.7.8V118l5.8-1.2 15.3-2.8c3-.7 6.3-1.2 9.3-1.8z" fill="#E4312A"/><path d="M31.7 112.2c14.6-3.6 31.3-1.6 44.1 4.7 11 6.6 24.9 9.4 38.3 6.9l32.5-5.9v26.3c-4.6 1-9 1.9-13.9 1.2-2.6-.4-5-1.1-7.4-2.1l-16.9-8.8c-9.7-4.3-21.6-5.9-32.7-3.8L6 143.5l-4.7.8V118l5.8-1.2 15.3-2.8c3-.7 6.3-1.2 9.3-1.8z" stroke="#E4312A" stroke-width=".454" stroke-miterlimit="3.864"/><path d="M1.3 69.9V49.6l60.1-11c15-1.9 29.6 1 42 7.6 11.3 5.9 26 7.4 39.1 4.3l4.2-.9v20.3l-13.3-7.6c-9.4-4.4-20.5-6.2-31.5-4.7L65 64.3c-4.4.8-13.3 2.4-13.3 2.4L18 73c-6.9 1.1-11.9-.3-16.7-3.1z" fill="#E4312A"/><path d="M1.3 69.9V49.6l60.1-11c15-1.9 29.6 1 42 7.6 11.3 5.9 26 7.4 39.1 4.3l4.2-.9v20.3l-13.3-7.6c-9.4-4.4-20.5-6.2-31.5-4.7L65 64.3c-4.4.8-13.3 2.4-13.3 2.4L18 73c-6.9 1.1-11.9-.3-16.7-3.1z" stroke="#E4312A" stroke-width=".454" stroke-miterlimit="3.864"/><path d="M146.6 76.9v20l-59.6 11c-15 1.9-29.6-1-42-7.6-11.3-5.9-26-7.4-39.1-4.3l-4.7.9v-20L15 84.2c9.4 4.4 20.5 6.2 31.5 4.7l36.9-6.7c4.4-.8 13.3-2.4 13.3-2.4l33.6-6.2c6.7-1.2 11.7.7 16.3 3.3z" fill="#E4312A"/><path d="M146.6 76.9v20l-59.6 11c-15 1.9-29.6-1-42-7.6-11.3-5.9-26-7.4-39.1-4.3l-4.7.9v-20L15 84.2c9.4 4.4 20.5 6.2 31.5 4.7l36.9-6.7c4.4-.8 13.3-2.4 13.3-2.4l33.6-6.2c6.7-1.2 11.7.7 16.3 3.3z" stroke="#E4312A" stroke-width=".454" stroke-miterlimit="3.864"/></svg>