<?xml version="1.0" encoding="UTF-8"?>
<!-- Generator: Adobe Illustrator 19.2.1, SVG Export Plug-In . SVG Version: 6.00 Build 0)  -->
<svg version="1.1" id="Capa_2" xmlns="http://www.w3.org/2000/svg" xmlns:xlink="http://www.w3.org/1999/xlink" x="0px" y="0px" viewBox="0 0 711 210" style="enable-background:new 0 0 711 210;" xml:space="preserve">
<style type="text/css">
	.st0{fill:#F7E016;}
	.st1{fill:none;stroke:#F7E016;stroke-width:0.454;stroke-miterlimit:3.864;}
	.st2{fill:#E4312A;}
	.st3{fill:none;stroke:#E4312A;stroke-width:0.454;stroke-miterlimit:3.864;}
	.st4{fill-rule:evenodd;clip-rule:evenodd;fill:#E4312A;}
	.st5{fill-rule:evenodd;clip-rule:evenodd;}
</style>
<g id="GOBIERNO_DE_ARAGÓN">
	<rect x="26.3" y="32.3" class="st0" width="145.4" height="145.4"/>
	<rect x="26.3" y="32.3" class="st1" width="145.4" height="145.4"/>
	<path class="st2" d="M171.6,60.2c0,0-31.8,6.5-34.9,7c-12.6,2-25.6,0-36.5-4.7c-7.3-3.9-14.8-7.3-23-8.4c-5.3-0.8-11-0.8-16.3-0.1   l-23.3,4.2c-3.7,0.7-7.6,1.4-11.3,2V33.8c5.7-1.4,12.1-2.3,18-0.4c3.4,0.8,6.4,2.8,9.6,4.3c6.4,3.4,12.6,7.5,19.8,9.1   c9.6,2.7,20.9,2.1,30.5-0.2l21.8-4l22.8-4.1l22.9-4.7V60.2"/>
	<path class="st3" d="M171.6,60.2c0,0-31.8,6.5-34.9,7c-12.6,2-25.6,0-36.5-4.7c-7.3-3.9-14.8-7.3-23-8.4c-5.3-0.8-11-0.8-16.3-0.1   l-23.3,4.2c-3.7,0.7-7.6,1.4-11.3,2V33.8c5.7-1.4,12.1-2.3,18-0.4c3.4,0.8,6.4,2.8,9.6,4.3c6.4,3.4,12.6,7.5,19.8,9.1   c9.6,2.7,20.9,2.1,30.5-0.2l21.8-4l22.8-4.1l22.9-4.7V60.2z"/>
	<path class="st4" d="M56.7,144.2c14.6-3.6,31.3-1.6,44.1,4.7c11,6.6,24.9,9.4,38.3,6.9l32.5-5.9v26.3c-4.6,1-9,1.9-13.9,1.2   c-2.6-0.4-5-1.1-7.4-2.1l-16.9-8.8c-9.7-4.3-21.6-5.9-32.7-3.8L31,175.5l-4.7,0.8v-26.3l5.8-1.2l15.3-2.8   C50.4,145.3,53.7,144.8,56.7,144.2"/>
	<path class="st3" d="M56.7,144.2c14.6-3.6,31.3-1.6,44.1,4.7c11,6.6,24.9,9.4,38.3,6.9l32.5-5.9v26.3c-4.6,1-9,1.9-13.9,1.2   c-2.6-0.4-5-1.1-7.4-2.1l-16.9-8.8c-9.7-4.3-21.6-5.9-32.7-3.8L31,175.5l-4.7,0.8v-26.3l5.8-1.2l15.3-2.8   C50.4,145.3,53.7,144.8,56.7,144.2z"/>
	<path class="st2" d="M26.3,101.9V81.6l60.1-11c15-1.9,29.6,1,42,7.6c11.3,5.9,26,7.4,39.1,4.3l4.2-0.9v20.3l-13.3-7.6   c-9.4-4.4-20.5-6.2-31.5-4.7l-36.9,6.7c-4.4,0.8-13.3,2.4-13.3,2.4L43,105C36.1,106.1,31.1,104.7,26.3,101.9"/>
	<path class="st3" d="M26.3,101.9V81.6l60.1-11c15-1.9,29.6,1,42,7.6c11.3,5.9,26,7.4,39.1,4.3l4.2-0.9v20.3l-13.3-7.6   c-9.4-4.4-20.5-6.2-31.5-4.7l-36.9,6.7c-4.4,0.8-13.3,2.4-13.3,2.4L43,105C36.1,106.1,31.1,104.7,26.3,101.9z"/>
	<path class="st2" d="M171.6,108.9v20l-59.6,11c-15,1.9-29.6-1-42-7.6c-11.3-5.9-26-7.4-39.1-4.3l-4.7,0.9v-20l13.8,7.3   c9.4,4.4,20.5,6.2,31.5,4.7l36.9-6.7c4.4-0.8,13.3-2.4,13.3-2.4l33.6-6.2C162,104.4,167,106.3,171.6,108.9"/>
	<path class="st3" d="M171.6,108.9v20l-59.6,11c-15,1.9-29.6-1-42-7.6c-11.3-5.9-26-7.4-39.1-4.3l-4.7,0.9v-20l13.8,7.3   c9.4,4.4,20.5,6.2,31.5,4.7l36.9-6.7c4.4-0.8,13.3-2.4,13.3-2.4l33.6-6.2C162,104.4,167,106.3,171.6,108.9z"/>
	<path class="st5" d="M201.2,164.3v-39.7h6.5c13.4,0,20.8,7.1,20.8,19.9c0,13.1-7.1,19.8-20.9,19.8H201.2 M186.2,111.4v66.3h22.2   c22.5,0,35.7-12.3,35.7-33.2c0-20.8-13.5-33.1-36.5-33.1H186.2z"/>
	<polygon points="249.4,111.4 249.4,177.7 293.4,177.7 293.4,164.3 264.3,164.3 264.3,149.2 293.1,149.2 293.1,135.7 264.3,135.7    264.3,124.7 293.4,124.7 293.4,111.4  "/>
	<path class="st5" d="M365.4,144.7h-12.4l1.6-4.6c1.3-3.9,1.8-5.2,2.2-6.8c0.2-0.6,0.6-1.8,1.1-3.6l0.7-2.5c0.1-0.3,0.3-1,0.6-2.2   c0.7,2.8,1.2,4.8,2.3,8.1l1.2,3.7c0.7,2,1,3.1,1.1,3.3L365.4,144.7 M350.4,111.4l-24.2,66.3h15.7l7.2-20.2h20.3l7.1,20.2h16   l-24.7-66.3H350.4z"/>
	<path class="st5" d="M410.2,137.9V124h6.8c6.5,0,9.3,2.1,9.3,6.9c0,4.8-3.2,7.1-9.5,7.1H410.2 M395,177.7h15.2v-27.2h1.9   c9.5,0,10.5,1,16.9,17.4c0.7,1.8,1.1,2.9,1.4,3.4l1.3,3.1c0.9,2.1,1,2.3,1.6,3.4h18.2c-3.7-4.1-6.8-9.6-12.6-23.2   c-2.6-5.7-4.1-7.4-8.8-9.3c7.8-2.4,12.1-8.1,12.1-15.9c0-11.9-7.9-17.9-23.7-17.9H395V177.7z"/>
	<path class="st5" d="M478.3,144.7h-12.4l1.6-4.6c1.3-3.9,1.8-5.2,2.2-6.8c0.2-0.6,0.6-1.8,1.1-3.6l0.7-2.5c0.1-0.3,0.3-1,0.6-2.2   c0.7,2.8,1.2,4.8,2.3,8.1l1.2,3.7c0.7,2,1,3.1,1.1,3.3L478.3,144.7 M463.2,111.4l-24.2,66.3h15.7l7.2-20.2h20.3l7.1,20.2h16   l-24.7-66.3H463.2z"/>
	<path d="M555.6,143.8h-14.8v20.9c-2.9,0.8-4.1,0.9-6.4,0.9c-11.3,0-19.7-8.8-19.7-20.9c0-12.9,8.8-21.6,22-21.6   c6.6,0,12,1.7,18.9,5.8v-15.1c-7.9-2.9-13.4-4-20.2-4c-21.5,0-36.4,14.4-36.4,35.1c0,20.4,14.6,34.2,36.4,34.2   c6.8,0,13.9-1.2,20.2-3.5V143.8"/>
	<path class="st5" d="M614.6,144.6c0,12.5-7.4,20.9-18.5,20.9c-11.2,0-18.9-8.4-18.9-20.9c0-12.4,7.5-20.9,18.6-20.9   C607.1,123.7,614.6,132.1,614.6,144.6 M630.4,144.4c0-19.8-14.7-34.2-34.8-34.2c-19.6,0-34.1,14.6-34.1,34.4   c0,19.9,14.5,34.3,34.6,34.3C616.2,178.9,630.4,164.6,630.4,144.4"/>
	<path d="M636.1,111.4v66.3h15.1v-27v-3.5l-0.1-3.5l-0.1-3.8c0-0.5,0-1.5-0.2-3.2l-0.1-2.5c0.5,1,0.8,1.7,1.1,2.2   c0.1,0.1,0.7,1.1,1.8,3.1l2.7,4.6c0.1,0.2,1.1,1.7,2.9,4.5l2.6,4.2l16.2,25h14v-66.3h-15.1v24.6c0,6.2,0.2,10.9,0.5,14.9   c0,0.5,0.1,1.3,0.2,2.4c-2-4.2-4.7-8.6-8.4-14.3l-18-27.5H636.1"/>
	<path d="M241.7,64.6h-14.8v20.9c-2.9,0.8-4.1,0.9-6.4,0.9c-11.3,0-19.7-8.8-19.7-20.9c0-12.9,8.8-21.6,22-21.6   c6.6,0,12,1.7,18.9,5.8V34.6c-7.9-2.9-13.4-4-20.2-4c-21.5,0-36.4,14.4-36.4,35.1c0,20.4,14.6,34.2,36.4,34.2   c6.8,0,13.9-1.2,20.2-3.5V64.6"/>
	<path class="st5" d="M300.6,65.4c0,12.5-7.4,20.9-18.5,20.9c-11.2,0-18.9-8.5-18.9-20.9c0-12.4,7.5-20.9,18.6-20.9   C293.1,44.5,300.6,52.9,300.6,65.4 M316.4,65.2c0-19.8-14.7-34.2-34.8-34.2c-19.6,0-34.1,14.6-34.1,34.4   c0,19.9,14.5,34.3,34.6,34.3C302.2,99.7,316.4,85.4,316.4,65.2"/>
	<path class="st5" d="M336.5,85V69.6h8.4c7.9,0,11.1,2.2,11.1,7.8c0,5.4-3.2,7.7-10.5,7.7H336.5 M336.5,57V44.8h6.5   c7.1,0,9.5,1.6,9.5,5.9c0,4.5-2.6,6.3-9,6.3H336.5z M321.4,32.2v66.3h27.4c14.6,0,23.2-7.3,23.2-19.7c0-8.5-4.9-14.7-13.8-17.3   c6.1-3,9-7.7,9-13.6c0.1-10.5-7.1-15.7-21.4-15.7H321.4z"/>
	<rect x="375.1" y="32.2" width="14.8" height="66.3"/>
	<polygon points="396.4,32.2 396.4,98.5 440.3,98.5 440.3,85.1 411.2,85.1 411.2,70 440,70 440,56.6 411.2,56.6 411.2,45.5    440.3,45.5 440.3,32.2  "/>
	<path class="st5" d="M462,58.8V44.8h6.8c6.5,0,9.3,2.1,9.3,6.9c0,4.8-3.2,7.1-9.5,7.1H462 M446.7,98.5H462V71.3h1.9   c9.5,0,10.5,1,16.9,17.4c0.7,1.8,1.1,2.9,1.4,3.4l1.3,3.1c0.9,2.1,1,2.3,1.6,3.4h18.2c-3.7-4.1-6.8-9.6-12.6-23.2   c-2.6-5.7-4.1-7.4-8.8-9.3c7.8-2.4,12.1-8.1,12.1-15.9c0-11.9-7.9-17.9-23.7-17.9h-23.5V98.5z"/>
	<path d="M499.8,32.2v66.3h15.1v-27V68l-0.1-3.5l-0.1-3.8c0-0.5,0-1.5-0.2-3.2l-0.1-2.5c0.5,1,0.8,1.7,1.1,2.2   c0.1,0.1,0.7,1.1,1.8,3.1l2.7,4.6c0.1,0.2,1.1,1.7,2.9,4.5l2.6,4.2l16.2,25h14V32.2h-15.1v24.6c0,6.2,0.2,10.9,0.5,14.9   c0,0.5,0.1,1.3,0.2,2.4c-2-4.2-4.7-8.6-8.4-14.3l-18-27.5H499.8"/>
	<path class="st5" d="M614.7,65.4c0,12.5-7.4,20.9-18.5,20.9c-11.2,0-18.9-8.5-18.9-20.9c0-12.4,7.5-20.9,18.6-20.9   C607.2,44.5,614.7,52.9,614.7,65.4 M630.5,65.2c0-19.8-14.7-34.2-34.8-34.2c-19.6,0-34.1,14.6-34.1,34.4   c0,19.9,14.5,34.3,34.6,34.3S630.5,85.4,630.5,65.2"/>
</g>
</svg>